<svg width="100" height="100" viewBox="0 0 100 100" fill="none" xmlns="http://www.w3.org/2000/svg">
  <g opacity="0.1">
    <!-- Music Note 1 -->
    <path d="M20 20C20 20 25 15 25 10C25 5 20 5 20 10V40C20 45 15 45 15 40C15 35 20 35 20 40V20Z" fill="white"/>
    <!-- Music Note 2 -->
    <path d="M60 60C60 60 65 55 65 50C65 45 60 45 60 50V80C60 85 55 85 55 80C55 75 60 75 60 80V60Z" fill="white"/>
    <!-- Circle 1 -->
    <circle cx="80" cy="20" r="5" fill="white"/>
    <!-- Circle 2 -->
    <circle cx="40" cy="70" r="3" fill="white"/>
    <!-- Star -->
    <path d="M85 85L80 80M80 90L85 85M90 80L85 85M80 80L85 85" stroke="white" stroke-width="2"/>
  </g>
</svg> 